<?xml version="1.0" standalone="no"?>
<!DOCTYPE svg PUBLIC "-//W3C//DTD SVG 20010904//EN"
 "http://www.w3.org/TR/2001/REC-SVG-20010904/DTD/svg10.dtd">
<svg version="1.0" xmlns="http://www.w3.org/2000/svg"
 width="512.000000pt" height="512.000000pt" viewBox="0 0 512.000000 512.000000"
 preserveAspectRatio="xMidYMid meet">
<metadata>
Created by potrace 1.11, written by Peter Selinger 2001-2013
</metadata>
<g transform="translate(0.000000,512.000000) scale(0.100000,-0.100000)"
fill="#000000" stroke="none">
<path d="M1400 4168 c-25 -6 -51 -10 -57 -10 -7 -1 -13 -5 -13 -10 0 -5 -4 -7
-9 -3 -5 3 -17 -2 -25 -11 -9 -8 -16 -12 -16 -8 0 3 -7 1 -15 -6 -8 -7 -15 -9
-15 -4 0 5 -7 0 -15 -10 -8 -11 -15 -17 -15 -13 0 7 -61 -44 -82 -68 -35 -41
-50 -63 -69 -104 -11 -25 -25 -56 -31 -68 -6 -11 -8 -26 -4 -31 3 -6 2 -12 -4
-14 -6 -2 -11 -17 -13 -35 -1 -17 -4 -31 -7 -31 -3 0 -8 -1 -12 -2 -20 -5 -76
-3 -86 4 -7 4 -12 2 -12 -5 0 -8 -4 -8 -13 -1 -8 7 -18 7 -27 2 -9 -5 -19 -5
-27 2 -7 6 -13 7 -13 2 0 -5 -32 -9 -70 -8 -39 0 -70 -2 -70 -5 0 -3 -12 -12
-27 -18 -29 -13 -76 -74 -76 -99 0 -7 -4 -14 -8 -14 -4 0 -6 -9 -4 -20 2 -11
1 -20 -3 -20 -4 0 -7 -17 -6 -38 0 -20 -3 -41 -7 -47 -4 -5 -6 -21 -5 -35 1
-14 -1 -27 -5 -30 -4 -3 -9 -27 -13 -55 -7 -55 -12 -92 -21 -145 -3 -19 -6
-43 -6 -52 0 -10 -6 -18 -12 -18 -7 0 -6 -4 3 -10 8 -5 10 -10 5 -10 -6 0 -11
-12 -12 -27 -1 -16 -4 -41 -7 -58 -3 -16 -7 -44 -10 -62 -2 -18 -7 -36 -9 -40
-4 -7 -16 -102 -20 -150 0 -7 -3 -13 -6 -13 -3 0 -7 -19 -8 -43 -3 -38 -9 -82
-13 -82 -1 0 -10 -82 -13 -117 -1 -10 -4 -18 -7 -18 -5 0 -7 -21 -12 -102 -1
-16 -5 -28 -10 -28 -4 0 -5 -9 -3 -20 2 -11 1 -20 -3 -20 -4 0 -8 -10 -9 -22
-2 -31 -9 -86 -19 -139 -4 -24 -7 -52 -5 -61 1 -10 -1 -18 -6 -18 -4 0 -8 -12
-9 -27 0 -16 -4 -46 -7 -68 -8 -44 -16 -104 -21 -150 -2 -16 -6 -37 -9 -45 -3
-8 -11 -51 -17 -96 -13 -101 -17 -121 -26 -136 -5 -7 -3 -8 6 -3 9 5 11 4 6
-3 -8 -13 -13 -35 -22 -92 -3 -19 -9 -51 -14 -70 -5 -19 -12 -48 -15 -65 -8
-38 -13 -60 -15 -60 -1 0 -3 -16 -5 -35 -3 -19 -6 -47 -8 -63 -2 -15 -6 -30
-10 -33 -3 -3 -2 -16 3 -28 4 -13 4 -29 0 -36 -5 -8 -5 -19 1 -26 7 -8 6 -14
-1 -19 -5 -3 -10 -28 -10 -54 0 -35 7 -57 25 -82 14 -19 33 -46 43 -61 10 -16
21 -26 24 -23 3 3 11 -8 18 -25 7 -16 16 -27 21 -24 5 3 9 1 9 -5 0 -5 9 -8
20 -6 11 2 18 0 15 -6 -6 -9 15 -13 44 -9 8 1 17 -4 21 -11 5 -7 13 -8 21 -3
18 11 77 11 107 2 15 -5 21 -4 17 2 -3 6 -2 10 4 10 5 0 13 -5 16 -10 4 -6 13
-7 23 -2 20 10 62 9 79 -1 6 -4 15 -3 18 3 5 7 11 8 19 1 7 -6 17 -6 26 -1 8
5 21 5 32 -1 10 -5 18 -6 18 -2 0 4 32 8 70 8 40 0 70 -4 70 -10 0 -5 4 -4 9
3 11 17 21 17 32 0 8 -11 10 -11 18 1 6 10 13 11 29 2 14 -8 23 -8 27 -1 5 8
12 7 23 -2 9 -8 13 -8 9 -1 -9 14 115 13 125 -2 5 -7 8 -6 8 1 0 15 91 15 109
0 11 -8 13 -8 8 1 -10 16 104 14 115 -2 5 -7 8 -6 8 1 0 14 57 16 66 3 3 -5
11 -6 17 -2 19 12 147 11 147 -1 0 -8 2 -8 8 0 10 14 93 15 111 0 11 -8 13 -8
8 1 -5 8 9 11 53 10 34 -1 60 -6 60 -12 0 -6 3 -6 8 1 10 14 93 15 111 0 11
-8 13 -8 8 1 -9 15 132 14 152 -1 11 -8 13 -8 8 1 -9 15 132 14 152 -1 11 -8
13 -8 8 1 -9 15 132 14 152 -1 11 -8 13 -8 8 1 -5 8 8 11 48 11 31 -1 58 -5
61 -10 3 -5 11 -5 17 -1 19 12 147 11 147 -1 0 -8 2 -8 8 0 10 14 93 15 111 0
11 -8 13 -8 8 1 -10 16 104 14 115 -2 5 -7 8 -6 8 1 0 14 57 16 66 3 3 -5 11
-6 17 -2 17 11 136 12 143 2 3 -5 11 -6 17 -2 19 12 147 11 147 -1 0 -8 2 -8
8 0 10 14 93 15 111 0 11 -8 13 -8 8 1 -10 16 104 14 115 -2 5 -7 8 -6 8 1 0
14 57 16 66 3 3 -5 11 -6 17 -2 18 12 161 10 169 -2 5 -6 8 -5 8 3 0 6 12 12
26 12 33 0 100 37 118 65 11 17 23 22 50 20 20 -1 36 3 36 9 0 8 3 8 8 0 8
-12 100 -12 119 -1 6 4 14 3 17 -2 7 -11 66 -8 85 4 7 4 16 3 20 -2 5 -8 87
-11 116 -3 6 1 15 1 20 0 30 -8 241 -5 247 4 4 6 12 5 22 -3 11 -9 16 -10 16
-2 0 6 7 11 15 11 8 0 15 3 15 8 0 4 13 13 28 20 16 7 30 20 32 30 6 37 7 232
1 232 -4 0 -8 17 -9 38 -5 92 -7 112 -12 112 -3 0 -5 19 -5 43 1 23 -2 47 -5
52 -3 6 -6 17 -5 25 0 8 -4 18 -9 22 -6 4 -5 13 3 22 10 12 11 16 1 16 -7 0
-10 7 -7 15 4 8 3 16 -1 19 -4 2 -7 21 -7 40 1 20 -3 36 -8 36 -5 0 -4 7 3 15
8 10 9 15 1 15 -6 0 -11 10 -11 23 1 50 -6 106 -13 113 -12 12 -8 26 6 18 10
-6 10 -4 0 7 -7 7 -13 32 -13 55 0 24 -4 45 -8 48 -5 3 -8 23 -8 46 1 22 -3
42 -9 44 -5 3 -4 5 3 5 9 1 10 6 3 20 -6 10 -7 21 -4 25 3 3 1 6 -7 6 -10 0
-10 3 0 15 8 9 8 15 2 15 -6 0 -10 15 -10 33 0 17 -1 34 -2 37 -3 7 -10 68
-13 112 -1 21 -5 38 -9 38 -4 0 -5 9 -3 20 2 11 -1 20 -6 20 -6 0 -6 8 1 20 6
11 7 20 2 20 -5 0 -9 6 -9 13 -1 6 -2 32 -4 57 -1 25 -6 53 -10 62 -6 10 -5
19 2 23 7 5 5 15 -5 30 -11 16 -12 26 -5 30 7 5 5 13 -6 25 -11 12 -13 20 -5
25 5 3 8 10 5 14 -4 7 -11 52 -20 121 -4 36 -14 109 -22 155 -3 22 -7 51 -8
65 0 14 -3 30 -6 35 -3 6 -5 27 -4 48 0 20 -2 37 -5 37 -3 0 -6 15 -6 33 -1
38 -9 85 -20 111 -6 15 -4 17 6 11 9 -5 11 -4 6 3 -10 16 -16 49 -21 102 -1
25 -5 52 -8 60 -3 8 -6 23 -6 33 -2 43 -4 53 -15 66 -8 11 -8 13 2 7 6 -4 12
-2 12 3 0 6 -4 11 -8 11 -4 0 -7 12 -6 28 0 15 -4 31 -10 35 -8 6 -8 10 1 13
13 6 -15 63 -49 101 -20 21 -84 51 -73 34 7 -12 -58 -8 -67 4 -5 6 -8 6 -8 -1
0 -6 -13 -11 -28 -10 -28 1 -29 3 -28 49 1 26 -2 47 -7 47 -4 0 -5 5 -2 10 4
6 1 18 -7 27 -11 14 -11 16 1 8 11 -6 12 -5 5 6 -5 8 -9 16 -9 19 -3 20 -18
50 -26 50 -5 0 -8 3 -7 8 8 26 -128 172 -161 172 -5 0 -21 7 -37 14 -15 8 -31
13 -36 10 -5 -3 -15 0 -23 6 -17 14 -178 23 -170 10 3 -5 -4 -7 -16 -5 -12 2
-37 -2 -55 -10 -19 -8 -34 -12 -34 -9 0 7 -84 -39 -88 -48 -2 -5 -8 -8 -14 -8
-17 0 -116 -100 -128 -131 -7 -16 -17 -29 -23 -29 -6 0 -8 -2 -5 -6 3 -3 -3
-28 -14 -57 -19 -50 -30 -89 -31 -114 0 -6 -9 -14 -19 -16 -10 -3 -16 -2 -13
3 2 4 -13 4 -35 0 -22 -4 -40 -4 -40 1 0 4 -12 4 -28 0 -15 -5 -37 -4 -50 0
-12 5 -22 5 -22 0 0 -8 -69 -5 -78 3 -2 3 -12 1 -21 -4 -10 -5 -23 -5 -31 0
-7 4 -24 4 -37 -1 -12 -5 -23 -5 -23 0 0 9 -55 5 -71 -4 -5 -4 -9 -3 -9 2 0 8
-149 8 -157 -1 -3 -3 -16 -1 -29 4 -13 5 -24 6 -24 2 0 -9 -64 -7 -78 2 -5 3
-14 1 -22 -4 -7 -4 -24 -4 -37 1 -12 5 -23 5 -23 1 0 -8 -133 -7 -154 1 -7 3
-19 1 -26 -3 -7 -5 -24 -4 -37 1 -12 5 -23 5 -23 1 0 -4 -29 -5 -66 -2 -36 3
-70 2 -77 -2 -6 -4 -17 -2 -24 4 -9 7 -13 7 -13 -2 0 -9 -4 -9 -13 -2 -8 7
-18 7 -27 2 -9 -5 -19 -5 -27 2 -7 6 -13 7 -13 2 0 -9 -107 -10 -116 -1 -3 3
-19 1 -37 -4 -38 -11 -41 -8 -43 39 -1 20 -3 37 -4 37 -1 0 -4 18 -6 40 -3 21
-9 44 -15 51 -5 7 -12 22 -14 34 -2 13 -11 30 -20 40 -8 9 -15 20 -15 24 0 24
-145 140 -162 130 -4 -3 -8 -1 -8 4 0 6 -17 13 -37 17 -21 4 -41 12 -45 18 -6
9 -8 8 -8 -1 0 -8 -5 -10 -12 -5 -18 11 -105 11 -158 1z m110 -232 c0 -6 5 -5
11 1 8 8 21 6 48 -9 51 -29 77 -48 66 -48 -6 0 -5 -4 1 -8 17 -11 45 -70 49
-105 4 -28 1 -32 -20 -32 -14 0 -25 4 -25 9 0 5 -6 3 -13 -3 -8 -6 -16 -9 -19
-6 -7 7 -147 10 -154 3 -3 -4 -17 -3 -30 2 -13 5 -24 6 -24 2 0 -13 -88 -1
-94 14 -3 8 -1 14 5 14 6 0 9 7 5 15 -3 8 -1 15 4 15 6 0 10 10 10 23 0 12 8
30 18 39 9 9 22 23 29 30 23 25 42 38 62 41 11 2 23 5 25 8 9 9 46 5 46 -5z
m2421 2 c0 -10 2 -10 5 -1 9 21 108 -22 125 -54 7 -13 16 -23 21 -23 4 0 8 -7
8 -15 0 -8 4 -15 8 -15 5 0 9 -7 10 -15 1 -8 3 -22 4 -30 1 -8 5 -15 9 -15 4
0 5 -8 3 -17 -4 -15 -17 -18 -87 -18 -45 0 -85 4 -89 10 -5 7 -8 7 -8 0 0 -12
-180 -13 -198 -1 -7 4 -9 13 -5 19 4 7 8 15 9 20 1 4 3 9 4 12 1 3 3 8 5 13
16 57 80 119 133 128 8 1 16 5 20 8 9 10 22 7 23 -6z m170 -2511 c-10 -9 -11
-8 -5 6 3 10 9 15 12 12 3 -3 0 -11 -7 -18z m-111 -461 c0 -3 -4 -8 -10 -11
-5 -3 -10 -1 -10 4 0 6 5 11 10 11 6 0 10 -2 10 -4z"/>
</g>
</svg>
